inDegrees=no
DataType=double
version=3
OpenSimVersion=4.4-2022-10-11-798caa840
endheader
time	elv_angle	shoulder_elv	shoulder_rot	elbow_flexion	pro_sup	deviation	flexion
2.4020851434	1.2056014538	1.1209194660	0.4363323152	1.2206552029	0.0000000000	0.0000000000	0.0000000000
2.4062554301	1.2056014538	1.1209194660	0.4363323152	1.2206552029	0.0000000000	0.0000000000	0.0000000000
2.4104257168	1.2056014538	1.1209194660	0.4363323152	1.2206552029	0.0000000000	0.0000000000	0.0000000000
2.4145960035	1.2056014538	1.1209194660	0.4363323152	1.2206552029	0.0000000000	0.0000000000	0.0000000000
2.4187662902	1.2056014538	1.1209194660	0.4363323152	1.2206552029	0.0000000000	0.0000000000	0.0000000000
2.4229365769	1.2056014538	1.1209194660	0.4363323152	1.2206552029	0.0000000000	0.0000000000	0.0000000000
2.4271068636	1.2056014538	1.1209194660	0.4363323152	1.2206552029	0.0000000000	0.0000000000	0.0000000000
2.4312771503	1.2056014538	1.1209194660	0.4363323152	1.2206552029	0.0000000000	0.0000000000	0.0000000000
2.4354474370	1.2056014538	1.1209194660	0.4363323152	1.2206552029	0.0000000000	0.0000000000	0.0000000000
2.4396177237	1.2056014538	1.1209194660	0.4363323152	1.2206552029	0.0000000000	0.0000000000	0.0000000000
2.4437880104	1.2056014538	1.1209194660	0.4363323152	1.2206552029	0.0000000000	0.0000000000	0.0000000000
2.4479582971	1.2056014538	1.1209194660	0.4363323152	1.2206552029	0.0000000000	0.0000000000	0.0000000000
2.4521285838	1.2056014538	1.1209194660	0.4363323152	1.2206552029	0.0000000000	0.0000000000	0.0000000000
2.4562988705	1.2056014538	1.1209194660	0.4363323152	1.2206552029	0.0000000000	0.0000000000	0.0000000000
2.4604691573	1.2056014538	1.1209194660	0.4363323152	1.2206552029	0.0000000000	0.0000000000	0.0000000000
2.4646394440	1.2056014538	1.1209194660	0.4363323152	1.2206552029	0.0000000000	0.0000000000	0.0000000000
2.4688097307	1.2056014538	1.1209194660	0.4363323152	1.2206552029	0.0000000000	0.0000000000	0.0000000000
2.4729800174	1.2056014538	1.1209194660	0.4363323152	1.2206552029	0.0000000000	0.0000000000	0.0000000000
2.4771503041	1.2056014538	1.1209194660	0.4363323152	1.2206552029	0.0000000000	0.0000000000	0.0000000000
2.4813205908	1.2056014538	1.1209194660	0.4363323152	1.2206552029	0.0000000000	0.0000000000	0.0000000000
2.4854908775	1.2056014538	1.1209194660	0.4363323152	1.2206552029	0.0000000000	0.0000000000	0.0000000000
2.4896611642	1.2056014538	1.1209194660	0.4363323152	1.2206552029	0.0000000000	0.0000000000	0.0000000000
2.4938314509	1.2056014538	1.1209194660	0.4363323152	1.2206552029	0.0000000000	0.0000000000	0.0000000000
2.4980017376	1.2056014538	1.1209194660	0.4363323152	1.2206552029	0.0000000000	0.0000000000	0.0000000000
2.5021720243	1.2056014538	1.1209194660	0.4363323152	1.2206552029	0.0000000000	0.0000000000	0.0000000000
2.5063423110	1.2056014538	1.1209194660	0.4363323152	1.2206552029	0.0000000000	0.0000000000	0.0000000000
2.5105125977	1.2056014538	1.1209194660	0.4363323152	1.2206552029	0.0000000000	0.0000000000	0.0000000000
2.5146828844	1.2056014538	1.1209194660	0.4363323152	1.2206552029	0.0000000000	0.0000000000	0.0000000000
2.5188531712	1.2056014538	1.1209194660	0.4363323152	1.2206552029	0.0000000000	0.0000000000	0.0000000000
2.5230234579	1.2056014538	1.1209194660	0.4363323152	1.2206552029	0.0000000000	0.0000000000	0.0000000000
2.5271937446	1.2056014538	1.1209194660	0.4363323152	1.2206552029	0.0000000000	0.0000000000	0.0000000000
2.5313640313	1.2056014538	1.1209194660	0.4363323152	1.2206552029	0.0000000000	0.0000000000	0.0000000000
2.5355343180	1.2056014538	1.1209194660	0.4363323152	1.2206552029	0.0000000000	0.0000000000	0.0000000000
2.5397046047	1.2056014538	1.1209194660	0.4363323152	1.2206552029	0.0000000000	0.0000000000	0.0000000000
2.5438748914	1.2056014538	1.1209194660	0.4363323152	1.2206552029	0.0000000000	0.0000000000	0.0000000000
2.5480451781	1.2056014538	1.1209194660	0.4363323152	1.2206552029	0.0000000000	0.0000000000	0.0000000000
2.5522154648	1.2056014538	1.1209194660	0.4363323152	1.2206552029	0.0000000000	0.0000000000	0.0000000000
2.5563857515	1.2056014538	1.1209194660	0.4363323152	1.2206552029	0.0000000000	0.0000000000	0.0000000000
2.5605560382	1.2056014538	1.1209194660	0.4363323152	1.2206552029	0.0000000000	0.0000000000	0.0000000000
2.5647263249	1.2056014538	1.1209194660	0.4363323152	1.2206552029	0.0000000000	0.0000000000	0.0000000000
2.5688966116	1.2056014538	1.1209194660	0.4363323152	1.2206552029	0.0000000000	0.0000000000	0.0000000000
2.5730668983	1.2056014538	1.1209194660	0.4363323152	1.2206552029	0.0000000000	0.0000000000	0.0000000000
2.5772371851	1.2056014538	1.1209194660	0.4363323152	1.2206552029	0.0000000000	0.0000000000	0.0000000000
2.5814074718	1.2056014538	1.1209194660	0.4363323152	1.2206552029	0.0000000000	0.0000000000	0.0000000000
2.5855777585	1.2056014538	1.1209194660	0.4363323152	1.2206552029	0.0000000000	0.0000000000	0.0000000000
2.5897480452	1.2056014538	1.1209194660	0.4363323152	1.2206552029	0.0000000000	0.0000000000	0.0000000000
2.5939183319	1.2056014538	1.1209194660	0.4363323152	1.2206552029	0.0000000000	0.0000000000	0.0000000000
2.5980886186	1.2056014538	1.1209194660	0.4363323152	1.2206552029	0.0000000000	0.0000000000	0.0000000000
2.6022589053	1.2056014538	1.1209194660	0.4363323152	1.2206552029	0.0000000000	0.0000000000	0.0000000000
2.6064291920	1.2056014538	1.1209194660	0.4363323152	1.2206552029	0.0000000000	0.0000000000	0.0000000000
2.6105994787	1.2056014538	1.1209194660	0.4363323152	1.2206552029	0.0000000000	0.0000000000	0.0000000000
2.6147697654	1.2056014538	1.1209194660	0.4363323152	1.2206552029	0.0000000000	0.0000000000	0.0000000000
2.6189400521	1.2056014538	1.1209194660	0.4363323152	1.2206552029	0.0000000000	0.0000000000	0.0000000000
2.6231103388	1.2056014538	1.1209194660	0.4363323152	1.2206552029	0.0000000000	0.0000000000	0.0000000000
2.6272806255	1.2056014538	1.1209194660	0.4363323152	1.2206552029	0.0000000000	0.0000000000	0.0000000000
2.6314509123	1.2056014538	1.1209194660	0.4363323152	1.2206552029	0.0000000000	0.0000000000	0.0000000000
2.6356211990	1.2056014538	1.1209194660	0.4363323152	1.2206552029	0.0000000000	0.0000000000	0.0000000000
2.6397914857	1.2056014538	1.1209194660	0.4363323152	1.2206552029	0.0000000000	0.0000000000	0.0000000000
2.6439617724	1.2056014538	1.1209194660	0.4363323152	1.2206552029	0.0000000000	0.0000000000	0.0000000000
2.6481320591	1.2056014538	1.1209194660	0.4363323152	1.2206552029	0.0000000000	0.0000000000	0.0000000000
2.6523023458	1.2056014538	1.1209194660	0.4363323152	1.2206552029	0.0000000000	0.0000000000	0.0000000000
2.6564726325	1.2055989504	1.1209194660	0.4363323152	1.2206577063	0.0000000000	0.0000000000	0.0000000000
2.6606429192	1.2055819035	1.1209191084	0.4363323152	1.2206751108	0.0000000000	0.0000000000	0.0000000000
2.6648132059	1.2055364847	1.1209186316	0.4363323152	1.2207211256	0.0000000000	0.0000000000	0.0000000000
2.6689834926	1.2054492235	1.1209174395	0.4363323152	1.2208094597	0.0000000000	0.0000000000	0.0000000000
2.6731537793	1.2053080797	1.1209155321	0.4363323152	1.2209522724	0.0000000000	0.0000000000	0.0000000000
2.6773240660	1.2051010132	1.1209127903	0.4363323152	1.2211622000	0.0000000000	0.0000000000	0.0000000000
2.6814943527	1.2048171759	1.1209090948	0.4363323152	1.2214496136	0.0000000000	0.0000000000	0.0000000000
2.6856646394	1.2044460773	1.1209044456	0.4363323152	1.2218251228	0.0000000000	0.0000000000	0.0000000000
2.6898349262	1.2039778233	1.1208989620	0.4363323152	1.2222985029	0.0000000000	0.0000000000	0.0000000000
2.6940052129	1.2034037113	1.1208924055	0.4363323152	1.2228790522	0.0000000000	0.0000000000	0.0000000000
2.6981754996	1.2027149200	1.1208852530	0.4363323152	1.2235743999	0.0000000000	0.0000000000	0.0000000000
2.7023457863	1.2019039392	1.1208775043	0.4363323152	1.2243927717	0.0000000000	0.0000000000	0.0000000000
2.7065160730	1.2009632587	1.1208696365	0.4363323152	1.2253406048	0.0000000000	0.0000000000	0.0000000000
2.7106863597	1.1998865604	1.1208621264	0.4363323152	1.2264244556	0.0000000000	0.0000000000	0.0000000000
2.7148566464	1.1986674070	1.1208553314	0.4363323152	1.2276499271	0.0000000000	0.0000000000	0.0000000000
2.7190269331	1.1973004341	1.1208502054	0.4363323152	1.2290211916	0.0000000000	0.0000000000	0.0000000000
2.7231972198	1.1957808733	1.1208473444	0.4363323152	1.2305430174	0.0000000000	0.0000000000	0.0000000000
2.7273675065	1.1941041946	1.1208477020	0.4363323152	1.2322187424	0.0000000000	0.0000000000	0.0000000000
2.7315377932	1.1922663450	1.1208521128	0.4363323152	1.2340514660	0.0000000000	0.0000000000	0.0000000000
2.7357080799	1.1902641058	1.1208618879	0.4363323152	1.2360433340	0.0000000000	0.0000000000	0.0000000000
2.7398783666	1.1880944967	1.1208785772	0.4363323152	1.2381960154	0.0000000000	0.0000000000	0.0000000000
2.7440486533	1.1857551336	1.1209031343	0.4363323152	1.2405104637	0.0000000000	0.0000000000	0.0000000000
2.7482189401	1.1832442284	1.1209374666	0.4363323152	1.2429871559	0.0000000000	0.0000000000	0.0000000000
2.7523892268	1.1805601120	1.1209831238	0.4363323152	1.2456263304	0.0000000000	0.0000000000	0.0000000000
2.7565595135	1.1777020693	1.1210417747	0.4363323152	1.2484269142	0.0000000000	0.0000000000	0.0000000000
